<?xml version="1.0" encoding="UTF-8"?>
<svg version="1.1" xmlns="http://www.w3.org/2000/svg" width="3067" height="3067">
<path d="M0 0 C1012.11 0 2024.22 0 3067 0 C3067 1012.11 3067 2024.22 3067 3067 C2054.89 3067 1042.78 3067 0 3067 C0 2054.89 0 1042.78 0 0 Z " fill="#FEFEFE" transform="translate(0,0)"/>
<path d="M0 0 C2.02217758 1.14351182 4.04299346 2.28928379 6.0625 3.4375 C6.69808838 3.79875977 7.33367676 4.16001953 7.98852539 4.53222656 C11.75767427 6.68549693 15.48271816 8.89440115 19.17822266 11.17138672 C78.82219257 47.73911626 150.01775263 67.98508362 219.40087891 74.65161133 C222.17165046 74.9198172 224.93734528 75.2096599 227.70458984 75.51049805 C242.52233361 77.06006659 257.23442071 77.35757807 272.125 77.3125 C273.347565 77.31100952 274.57013 77.30951904 275.82974243 77.3079834 C296.36476409 77.26316865 316.60907199 76.39954111 337 74 C338.85189941 73.79117187 338.85189941 73.79117187 340.74121094 73.578125 C390.69525306 67.81573616 438.38012497 53.8559895 485.54638672 36.87841797 C490.79522321 35 490.79522321 35 493 35 C487.02186676 54.33999853 476.39824597 71.77140114 466 89 C465.38914551 90.0219043 464.77829102 91.04380859 464.14892578 92.09667969 C453.11335639 110.53651768 441.20318292 128.32093224 429 146 C428.31067383 146.9988623 427.62134766 147.99772461 426.91113281 149.02685547 C418.76557704 160.79799854 410.43706044 172.43633797 402 184 C401.44876465 184.75603516 400.8975293 185.51207031 400.32958984 186.29101562 C392.94534356 196.40362058 385.43764066 206.41562727 377.82983398 216.36108398 C373.76695762 221.67278518 369.74298703 227.01064398 365.75 232.375 C360.95109208 238.8077161 355.98369819 245.0897592 350.9453125 251.3359375 C348.03343825 254.94743038 345.16970521 258.59520217 342.3125 262.25 C337.62487211 268.23627814 332.83411237 274.13124848 328 280 C326.54155659 281.79157706 325.08322483 283.58324502 323.625 285.375 C319.83193 290.01391139 315.97267593 294.59250666 312.09082031 299.15698242 C309.14065907 302.63204115 306.24350085 306.14435174 303.375 309.6875 C299.75165505 314.13903808 295.98036128 318.42382455 292.1171875 322.66796875 C290.21948831 324.75823889 288.35266585 326.86986115 286.5 329 C282.38763745 333.7160121 278.19917966 338.36129268 274 343 C273.18917969 343.90492188 272.37835937 344.80984375 271.54296875 345.7421875 C241.04651344 379.48489217 241.04651344 379.48489217 230 381 C224.34150897 377.92392914 220.48284594 372.08202547 216.75 367 C215.60888459 365.47725599 214.46694569 363.95512877 213.32421875 362.43359375 C212.7626709 361.68190918 212.20112305 360.93022461 211.62255859 360.15576172 C209.31412138 357.08872882 206.94430901 354.07268236 204.5625 351.0625 C203.66517727 349.92332461 202.7680458 348.78399853 201.87109375 347.64453125 C200.37169631 345.741026 198.87203504 343.83773198 197.37158203 341.93505859 C189.8279887 332.35544834 182.47894898 322.67095553 175.39868164 312.7434082 C173.27130186 309.76689832 171.13051938 306.8013428 168.96923828 303.84936523 C161.69273762 293.89597815 154.73917935 283.77276555 147.99731445 273.45043945 C146.4382238 271.06360807 144.87296328 268.68091839 143.30664062 266.29882812 C133.16518431 250.84764459 123.26930557 235.24221055 113.6875 219.4375 C113.33448822 218.85559906 112.98147644 218.27369812 112.61776733 217.67416382 C91.91040757 183.50791111 72.53073128 148.50829297 54.14453125 113.04296875 C52.36274339 109.6063835 50.5673601 106.17748098 48.7565918 102.75610352 C42.76233524 91.42568705 36.91497784 80.03001472 31.1875 68.5625 C30.75723511 67.70203064 30.32697021 66.84156128 29.88366699 65.95501709 C22.29619696 50.76501558 14.99536182 35.47233564 8 20 C7.56671387 19.04802734 7.13342773 18.09605469 6.68701172 17.11523438 C5.51470934 14.53772186 4.34889179 11.95744435 3.1875 9.375 C2.85524414 8.63975098 2.52298828 7.90450195 2.18066406 7.14697266 C0 2.2374798 0 2.2374798 0 0 Z " fill="#0166F9" transform="translate(1208,1514)"/>
<path d="M0 0 C-0.15146484 0.66491455 -0.30292969 1.3298291 -0.45898438 2.01489258 C-9.51060612 43.07792276 -6.68801238 84.73668017 13.95703125 122.11132812 C15.05511461 124.09980491 16.12149004 126.10354353 17.1875 128.109375 C21.7833716 136.64098209 26.91559813 144.43744106 33 152 C33.50080078 152.62938477 34.00160156 153.25876953 34.51757812 153.90722656 C44.75496358 166.76247533 55.23677529 179.27514099 67.734375 190.0078125 C70.36257617 192.31881697 72.89084496 194.72446451 75.4375 197.125 C82.19632267 203.40182854 89.49580247 208.92629257 96.88916016 214.42871094 C98.87340012 215.90576025 100.84933779 217.393288 102.82421875 218.8828125 C169.51638123 268.86220511 249.89333597 296.15619026 335.5 308.25 C336.59425293 308.40122314 337.68850586 308.55244629 338.81591797 308.70825195 C342.53920378 309.19019459 346.2660614 309.61151267 350 310 C350.82607758 310.0875354 351.65215515 310.1750708 352.50326538 310.26525879 C370.23547102 312.07938256 387.87944853 312.3137308 405.68237305 312.26074219 C409.53065786 312.24937894 413.37866493 312.25611052 417.22694016 312.26762581 C444.69022735 312.33718566 471.76304252 310.69366053 499 307 C499.99547852 306.86899902 500.99095703 306.73799805 502.01660156 306.60302734 C555.17317503 299.50117173 608.50846864 285.23717095 656 260 C657.15242188 259.38898438 658.30484375 258.77796875 659.4921875 258.1484375 C681.74058431 245.88911681 705.52749644 229.58861513 713 204 C714.24785453 194.08915539 712.84191869 186.18356459 707 178 C700.52579515 170.64607304 691.01305945 168.01909844 682 165 C689.19421432 160.20385712 698.70735553 161.20936278 706.90234375 162.71875 C721.65975402 166.43432132 733.26830074 172.46322202 741.875 185.4375 C749.87286484 198.86787681 752.17512178 212.1865541 748.5 227.4375 C737.02722387 265.86728858 702.53739018 293.33795844 670 314 C668.90429688 314.70125 667.80859375 315.4025 666.6796875 316.125 C610.53812767 351.28148958 544.80929243 370.11694823 480 381 C478.92250488 381.18159668 477.84500977 381.36319336 476.73486328 381.55029297 C463.22505008 383.78474044 449.69435506 385.44043172 436.0625 386.6875 C434.11029541 386.86659912 434.11029541 386.86659912 432.11865234 387.04931641 C414.82579593 388.54691808 397.5431668 389.20962688 380.1875 389.1875 C379.29458252 389.18689575 378.40166504 389.1862915 377.48168945 389.18566895 C293.47050884 389.03381027 209.63099531 374.36515235 90 317 C89.28408691 316.59040039 88.56817383 316.18080078 87.83056641 315.75878906 C77.60499089 309.90711954 67.69027815 303.70089371 58 297 C57.43249023 296.60876953 56.86498047 296.21753906 56.28027344 295.81445312 C16.68044277 268.37987303 -21.41997271 235.26484845 -44 192 C-44.30695801 191.4239502 -44.61391602 190.84790039 -44.93017578 190.25439453 C-62.83996756 156.54971912 -71.69229182 116.7212664 -63 79 C-62.83902832 78.30100586 -62.67805664 77.60201172 -62.51220703 76.88183594 C-56.86012808 53.43738164 -44.78645844 34.02903732 -28 17 C-27.21109375 16.19820312 -26.4221875 15.39640625 -25.609375 14.5703125 C-20.82001516 9.98711716 -15.69472826 6.32807628 -10.0625 2.875 C-9.41120117 2.47192627 -8.75990234 2.06885254 -8.08886719 1.65356445 C-3.37184629 -1.12394876 -3.37184629 -1.12394876 0 0 Z " fill="#0166F9" transform="translate(1142,1153)"/>
<path d="M0 0 C-3.46593823 3.52639064 -7.03835721 6.91010618 -10.67138672 10.26367188 C-33.95787498 31.81611814 -54.61114248 60.59622365 -56.11669922 93.5546875 C-57.32473171 129.0383881 -46.69678033 160.22511413 -23.94140625 187.65625 C-22.66807249 189.19347385 -21.42433054 190.75580235 -20.21484375 192.34375 C-11.284052 204.02393623 -0.52295905 213.93275354 11 223 C12.70888859 224.43683987 14.41720679 225.87435835 16.125 227.3125 C43.21982889 249.36287556 74.80404217 265.7768647 107 279 C107.84143555 279.3501416 108.68287109 279.7002832 109.54980469 280.06103516 C149.17841557 296.41781079 192.45427105 305.20695434 235 309 C236.16160645 309.10441406 237.32321289 309.20882813 238.52001953 309.31640625 C291.35260707 313.87355042 344.84663927 309.94833809 396.80761719 299.52392578 C401.60988993 298.56547926 406.07130968 297.70461616 411 298 C407.59209533 301.85469937 403.77099259 304.07194701 399.3125 306.5 C398.13868774 307.14195312 398.13868774 307.14195312 396.94116211 307.796875 C361.24207378 327.05964502 323.61791763 339.61093349 284 348 C283.10684082 348.19045898 282.21368164 348.38091797 281.29345703 348.57714844 C270.53007142 350.83817493 259.6986824 352.56889879 248.8125 354.125 C247.72864014 354.28371582 246.64478027 354.44243164 245.52807617 354.60595703 C223.07639896 357.68721037 200.61148849 358.33024424 177.98681641 358.26074219 C174.24938842 358.24934852 170.51224533 358.25614042 166.774827 358.26761341 C142.71344899 358.33040217 118.91490713 357.12913451 95.0625 353.8125 C93.91550125 353.65535019 93.91550125 353.65535019 92.74533081 353.49502563 C45.30803297 346.93979545 -2.43321782 335.1907255 -46 315 C-47.26094499 314.43576762 -48.52262724 313.87317902 -49.78515625 313.3125 C-82.09010778 298.68914871 -112.01826179 280.24962233 -138 256 C-138.86238281 255.20335937 -139.72476562 254.40671875 -140.61328125 253.5859375 C-166.86333585 228.43754945 -184.40417215 193.73875408 -185.33422852 157.14428711 C-185.76537717 122.57236092 -171.88693706 91.82855463 -148.05078125 67.0859375 C-147.03685391 66.05433472 -146.01999631 65.02560249 -145 64 C-144.52868652 63.5246582 -144.05737305 63.04931641 -143.57177734 62.55957031 C-130.85766398 49.92063605 -115.81131646 40.29349775 -100 32 C-99.35740234 31.6601709 -98.71480469 31.3203418 -98.05273438 30.97021484 C-70.50962642 16.4997026 -31.66764466 -1.66671814 0 0 Z " fill="#0066F9" transform="translate(1419,1062)"/>
<path d="M0 0 C0.62100586 0.4640625 1.24201172 0.928125 1.88183594 1.40625 C10.75644758 8.07760782 19.01733296 15.28908333 27 23 C27.62084473 23.59893066 28.24168945 24.19786133 28.88134766 24.81494141 C36.81043791 32.50586124 44.17929811 40.3036051 51 49 C52.4577011 50.72969968 53.91605191 52.45885199 55.375 54.1875 C87.26972836 93.32349251 107.82668689 142.34712288 116 192 C116.1959375 193.0415625 116.391875 194.083125 116.59375 195.15625 C117.22158889 201.09657183 117.07449154 207.03239963 117 213 C90.03964459 213.47864066 63.6713361 213.21482802 37 209 C36.32318176 208.89345093 35.64636353 208.78690186 34.94903564 208.67712402 C-4.64989374 202.36987248 -43.3798477 191.41571511 -80 175 C-80.9595459 174.57106445 -81.9190918 174.14212891 -82.90771484 173.70019531 C-109.12261927 161.85894098 -133.43269783 147.07430756 -155 128 C-155.8353125 127.27554687 -156.670625 126.55109375 -157.53125 125.8046875 C-169.17321059 115.56127412 -180.15198614 104.77644519 -189 92 C-189.41733398 91.39994141 -189.83466797 90.79988281 -190.26464844 90.18164062 C-204.09592392 69.97394821 -213.57094636 46.6568862 -209.37890625 21.85546875 C-206.62058224 8.34363096 -200.26304894 -4.76732233 -191 -15 C-190.43152344 -15.66 -189.86304688 -16.32 -189.27734375 -17 C-140.26827517 -70.27525077 -47.69066326 -35.88131943 0 0 Z " fill="#0066F9" transform="translate(1649,1119)"/>
<path d="M0 0 C118.68450165 0 118.68450165 0 135.625 4.1875 C136.49688965 4.40035645 137.3687793 4.61321289 138.26708984 4.83251953 C159.99402673 10.42217033 178.67976813 21.9617549 191 41 C197.74479831 53.15562541 202.12023565 66.89854475 202.203125 80.8359375 C202.20882507 81.59234528 202.21452515 82.34875305 202.22039795 83.12808228 C202.22982248 84.73006812 202.23637179 86.33207312 202.24023438 87.93408203 C202.24983086 90.33272463 202.28083092 92.73046842 202.3125 95.12890625 C202.48642926 120.28796049 194.72891743 143.04678428 176.80859375 161.22265625 C162.55359475 174.45761955 144.74096222 181.82619725 126 186 C125.28360352 186.16516113 124.56720703 186.33032227 123.82910156 186.50048828 C103.9077892 190.8450776 83.138525 189 63 189 C63 223.32 63 257.64 63 293 C42.21 293 21.42 293 0 293 C0 196.31 0 99.62 0 0 Z " fill="#0167F9" transform="translate(1928,1281)"/>
<path d="M0 0 C22.10787528 19.35227903 34.04828675 47.91607401 36 77 C36.18442493 81.99984556 36.24487288 86.9971397 36.25 92 C36.25100708 92.68497559 36.25201416 93.36995117 36.25305176 94.07568359 C36.24222822 104.98835599 35.50444663 115.35610182 33 126 C32.58234375 127.90652344 32.58234375 127.90652344 32.15625 129.8515625 C26.10785973 155.03580821 11.79469335 178.06177416 -10.25 192.1875 C-36.66261886 207.66652314 -71.08744349 212.99632043 -100.96826172 205.5390625 C-126.84880295 198.67241566 -149.04523633 185.34195294 -163.27734375 162 C-175.86398129 140.08041354 -181.22867172 116.99726461 -181.25 91.75 C-181.25067474 91.03480194 -181.25134949 90.31960388 -181.25204468 89.58273315 C-181.23494212 78.16157959 -180.6582748 67.14329956 -178 56 C-177.75056641 54.93386475 -177.75056641 54.93386475 -177.49609375 53.84619141 C-173.53253713 37.53321993 -166.79923121 22.9017364 -156 10 C-155.36449219 9.20207031 -154.72898437 8.40414063 -154.07421875 7.58203125 C-139.1125572 -10.41532974 -114.73394619 -21.16201065 -91.8203125 -23.77294922 C-58.82365939 -26.4293626 -26.08414864 -22.16979433 0 0 Z " fill="#0166F9" transform="translate(2348,1370)"/>
<path d="M0 0 C0.68442169 0.00182281 1.36884338 0.00364563 2.07400513 0.00552368 C12.65621496 0.05295398 22.6078371 0.63175028 32.875 3.3125 C33.52887695 3.47347168 34.18275391 3.63444336 34.85644531 3.80029297 C57.27190623 9.4230628 75.8288079 22.96392147 87.9609375 42.70703125 C103.71421678 70.04959917 101.875 100.03157443 101.875 131.3125 C54.355 131.3125 6.835 131.3125 -42.125 131.3125 C-39.78403467 148.86974001 -36.77125147 163.57601622 -22.8125 175.1875 C-11.73432204 183.12495741 -0.04894985 185.702597 13.375 185.5625 C14.32914795 185.55573242 15.2832959 185.54896484 16.26635742 185.54199219 C40.20150236 185.19929303 62.67350499 179.83947149 84.58203125 170.23046875 C86.875 169.3125 86.875 169.3125 88.875 169.3125 C88.875 184.8225 88.875 200.3325 88.875 216.3125 C52.11009921 234.6949504 4.36366768 238.83033172 -34.9375 226.125 C-48.02138246 221.62929062 -59.82580469 215.69621128 -70.125 206.3125 C-71.10210938 205.42820312 -72.07921875 204.54390625 -73.0859375 203.6328125 C-92.34427748 185.62185315 -102.87016612 159.48759712 -104.23129272 133.26470947 C-104.28813021 131.12651941 -104.31573132 128.99047042 -104.328125 126.8515625 C-104.33382507 126.0621225 -104.33952515 125.2726825 -104.34539795 124.45932007 C-104.35478961 122.79369418 -104.36135852 121.1280502 -104.36523438 119.46240234 C-104.37484147 116.97848728 -104.40587916 114.49543691 -104.4375 112.01171875 C-104.64452427 80.7764715 -95.60905211 49.88402064 -73.4375 27.0625 C-67.34865568 21.04139677 -60.52035623 16.56724232 -53.125 12.3125 C-52.29613281 11.82136719 -51.46726562 11.33023437 -50.61328125 10.82421875 C-35.28751449 2.41976601 -17.1876144 -0.0724153 0 0 Z " fill="#0166F9" transform="translate(788.125,1345.6875)"/>
<path d="M0 0 C2.04701376 0.00315485 4.09256814 -0.02038471 6.1394043 -0.0456543 C30.18355989 -0.16137946 54.13681922 7.17744318 72.24682617 23.31567383 C73.00608398 23.98083008 73.7653418 24.64598633 74.54760742 25.33129883 C91.77457768 41.39790321 98.76442366 63.68005751 102.24682617 86.31567383 C102.24682617 101.16567383 102.24682617 116.01567383 102.24682617 131.31567383 C54.72682617 131.31567383 7.20682617 131.31567383 -41.75317383 131.31567383 C-37.68302541 155.77818277 -37.68302541 155.77818277 -22.81567383 174.97973633 C-10.85203103 182.72891405 1.32387643 185.88963063 15.49682617 185.75317383 C16.61436279 185.74632568 17.73189941 185.73947754 18.88330078 185.73242188 C41.70693002 185.30354518 63.10167189 179.66406998 83.93041992 170.67114258 C87.24682617 169.31567383 87.24682617 169.31567383 89.24682617 169.31567383 C89.24682617 184.82567383 89.24682617 200.33567383 89.24682617 216.31567383 C75.15319872 223.36248755 75.15319872 223.36248755 68.12182617 225.50317383 C67.32196289 225.75091553 66.52209961 225.99865723 65.69799805 226.25390625 C48.60894367 231.34208842 30.99453261 232.55082535 13.24682617 232.56567383 C12.51794189 232.56634857 11.78905762 232.56702332 11.03808594 232.56771851 C-0.4528489 232.55086824 -11.54378506 232.00486839 -22.75317383 229.31567383 C-23.82510986 229.06624023 -23.82510986 229.06624023 -24.91870117 228.81176758 C-51.19415435 222.48456815 -74.24396749 207.18684253 -88.56958008 184.09301758 C-93.57937213 175.62968513 -96.812581 166.66975065 -99.50317383 157.25317383 C-99.70209229 156.55796631 -99.90101074 155.86275879 -100.10595703 155.14648438 C-103.28214865 143.33693794 -104.10247759 131.67845252 -104.06884766 119.515625 C-104.06570068 117.14836923 -104.08919718 114.7823846 -104.11450195 112.4152832 C-104.24293857 81.64394347 -95.41319219 50.44424452 -73.55004883 28.05786133 C-53.32863058 8.23183394 -28.02424975 -0.08985331 0 0 Z " fill="#0166F9" transform="translate(545.753173828125,1345.684326171875)"/>
<path d="M0 0 C14.8700616 11.67284755 21.89718817 31.78099303 24.40444946 49.84121704 C25.88301457 62.93275287 25.37187228 76.2727489 25.30418181 89.42742324 C25.28520206 93.74882675 25.28364804 98.0702391 25.28010559 102.39167786 C25.27084681 110.5438598 25.24631821 118.6959185 25.21605712 126.8480466 C25.18231898 136.14212603 25.16597871 145.4362119 25.15097082 154.7303375 C25.11976179 173.82030869 25.06482869 192.91011133 25 212 C4.54 212 -15.92 212 -37 212 C-37.01981934 207.69018066 -37.03963867 203.38036133 -37.06005859 198.93994141 C-37.12700426 184.69068064 -37.204545 170.44149203 -37.28752708 156.19231606 C-37.33757448 147.55417259 -37.38401809 138.91603824 -37.421875 130.27783203 C-37.45489374 122.74571401 -37.49477904 115.21366841 -37.54279006 107.68163049 C-37.56795714 103.69626158 -37.5897669 99.7109401 -37.60334396 95.72551346 C-37.61625374 91.96788581 -37.63840245 88.21042166 -37.66738319 84.45288467 C-37.68065708 82.42949846 -37.68436315 80.4060564 -37.68769836 78.38262939 C-37.80198727 65.83744967 -39.55807826 52.87415882 -47.3125 42.5 C-55.58627135 34.80346851 -65.99094685 33.5005412 -76.92578125 33.75390625 C-88.00251504 34.27349166 -98.45197685 37.9210406 -106.25 46.0625 C-122.14220682 66.59180965 -120.30235258 96.9432948 -120.4140625 121.47265625 C-120.43280828 124.09395433 -120.45238412 126.71524659 -120.4727478 129.33653259 C-120.51912824 135.48414499 -120.55606635 141.63177453 -120.58942068 147.77946991 C-120.63172776 155.481296 -120.68698019 163.18302306 -120.7421875 170.88476562 C-120.84037132 184.58978866 -120.91931895 198.29483798 -121 212 C-141.13 212 -161.26 212 -182 212 C-182 138.08 -182 64.16 -182 -12 C-166.49 -12 -150.98 -12 -135 -12 C-128.25 9.375 -128.25 9.375 -127 17 C-123.52964148 15.56970039 -121.96036258 13.91913117 -119.8125 10.875 C-111.60107784 -0.00950214 -101.25155147 -6.6737586 -88.5625 -11.25 C-87.88316406 -11.49637207 -87.20382813 -11.74274414 -86.50390625 -11.99658203 C-58.28921056 -21.6619856 -24.15953046 -17.62992763 0 0 Z " fill="#0166F9" transform="translate(2741,1362)"/>
<path d="M0 0 C55.44 0 110.88 0 168 0 C168 16.83 168 33.66 168 51 C132.69 51 97.38 51 61 51 C61 75.75 61 100.5 61 126 C93.67 126 126.34 126 160 126 C160 142.83 160 159.66 160 177 C127.33 177 94.66 177 61 177 C61 215.28 61 253.56 61 293 C40.87 293 20.74 293 0 293 C0 196.31 0 99.62 0 0 Z " fill="#0066F9" transform="translate(111,1281)"/>
<path d="M0 0 C12.87 0 25.74 0 39 0 C39 15.84 39 31.68 39 48 C59.79 48 80.58 48 102 48 C102 63.18 102 78.36 102 94 C81.21 94 60.42 94 39 94 C39.06174104 114.01771748 39.06174104 114.01771748 39.16015625 134.03515625 C39.20844893 142.20329071 39.25310037 150.37128636 39.27099609 158.53955078 C39.28545007 165.12734699 39.32064488 171.71482535 39.36830902 178.30247879 C39.38310941 180.81174259 39.39104024 183.32105692 39.39188385 185.83036423 C39.39425916 189.35392427 39.42138668 192.8765109 39.45410156 196.39990234 C39.4490712 197.42993378 39.44404083 198.45996521 39.43885803 199.52120972 C39.54405791 206.87811922 40.56106151 214.4417135 45.87921524 219.94443321 C53.34041497 226.14845772 62.24672639 226.87774333 71.64453125 226.26464844 C79.63233959 225.36717909 87.51559661 223.37781888 95.33789062 221.57250977 C98.20685802 220.95551339 101.10536515 220.48243914 104 220 C104 235.18 104 250.36 104 266 C87.80751708 271.78302961 87.80751708 271.78302961 80.25 273.25 C79.49074219 273.40984375 78.73148438 273.5696875 77.94921875 273.734375 C53.49496466 278.69970578 24.94916466 278.7910649 3.25 265.1875 C-11.17035988 254.93939614 -17.87550423 240.80843599 -20.99467182 223.70951939 C-22.899266 211.80701481 -22.36652215 199.66660457 -22.29296875 187.65234375 C-22.28567415 184.94137314 -22.28294934 182.23040289 -22.28010559 179.51942444 C-22.27085931 173.15920694 -22.24634852 166.79914803 -22.21605712 160.43899971 C-22.182279 153.18604535 -22.16596887 145.93308256 -22.15097082 138.68006885 C-22.11979028 123.78661026 -22.06487378 108.89335712 -22 94 C-31.9 94 -41.8 94 -52 94 C-54.76874105 75.11323068 -54.76874105 75.11323068 -52 68 C-45.3047123 60.83986451 -36.05076712 56.65457348 -27.25146484 52.60205078 C-20.7550295 49.40114909 -17.5788205 47.26560102 -15.11018372 40.44961548 C-14.8224559 39.592258 -14.53472809 38.73490051 -14.23828125 37.8515625 C-13.92094528 36.96141449 -13.60360931 36.07126648 -13.2766571 35.15414429 C-12.2694408 32.31742583 -11.29016986 29.47202087 -10.3125 26.625 C-9.3185144 23.78738196 -8.31886235 20.95184478 -7.31620789 18.11727905 C-6.69550037 16.35648575 -6.08077876 14.59356723 -5.47297668 12.82827759 C-5.19225815 12.02079071 -4.91153961 11.21330383 -4.62231445 10.38134766 C-4.38060013 9.67837555 -4.1388858 8.97540344 -3.8898468 8.25112915 C-2.77205701 5.42335118 -1.35983692 2.71967384 0 0 Z " fill="#0166F9" transform="translate(968,1302)"/>
<path d="M0 0 C1.6451094 0.00025112 3.29022405 0.00581355 4.93530273 0.01586914 C6.083797 0.01737976 6.083797 0.01737976 7.25549316 0.0189209 C10.12664275 0.02416876 12.99777106 0.03812992 15.86889648 0.05102539 C22.28327148 0.07165039 28.69764648 0.09227539 35.30639648 0.11352539 C35.30639648 15.95352539 35.30639648 31.79352539 35.30639648 48.11352539 C55.76639648 48.11352539 76.22639648 48.11352539 97.30639648 48.11352539 C97.30639648 63.29352539 97.30639648 78.47352539 97.30639648 94.11352539 C76.84639648 94.11352539 56.38639648 94.11352539 35.30639648 94.11352539 C35.4030396 115.13931782 35.4030396 115.13931782 35.52847385 136.16488361 C35.57828135 143.68607599 35.62375067 151.20721148 35.65283203 158.72851562 C35.6783444 165.32275282 35.71930185 171.91677889 35.76958275 178.51088142 C35.78623801 181.02376518 35.79776061 183.53668849 35.80401039 186.04961967 C35.81366568 189.57564009 35.8417437 193.10107708 35.87402344 196.62695312 C35.87258835 197.66057983 35.87115326 198.69420654 35.86967468 199.75915527 C35.96913019 207.46599818 36.65775017 214.84611308 42.36889648 220.48852539 C50.44450043 226.54522835 60.54300528 227.29342239 70.30639648 226.11352539 C77.47220629 224.89896075 84.56402604 223.32009031 91.64428711 221.68603516 C94.5132545 221.06903878 97.41176164 220.59596453 100.30639648 220.11352539 C100.30639648 235.29352539 100.30639648 250.47352539 100.30639648 266.11352539 C71.19214362 275.81827635 36.45529577 282.82992615 6.99389648 269.50024414 C0.63270472 266.21794316 -4.88373202 262.45782705 -9.69360352 257.11352539 C-10.49797852 256.26790039 -11.30235352 255.42227539 -12.13110352 254.55102539 C-23.24191694 240.8197371 -25.86116493 222.98462649 -25.80712891 205.93603516 C-25.80727493 204.72557022 -25.80742096 203.51510529 -25.80757141 202.26795959 C-25.80699622 198.96680165 -25.80199855 195.6657071 -25.79499745 192.36456037 C-25.78872454 188.90791338 -25.78815701 185.45126545 -25.78697205 181.99461365 C-25.78387031 175.45705113 -25.77567258 168.91950544 -25.76562256 162.38195032 C-25.7544254 154.93574095 -25.7489419 147.48953075 -25.74392712 140.04331505 C-25.73348895 124.73337378 -25.71515792 109.42345566 -25.69360352 94.11352539 C-35.59360352 94.11352539 -45.49360352 94.11352539 -55.69360352 94.11352539 C-58.26115472 75.15314727 -58.26115472 75.15314727 -55.69360352 68.11352539 C-49.64182971 61.32148456 -41.02842907 57.37192281 -32.875 53.6237793 C-31.82513916 53.12539551 -30.77527832 52.62701172 -29.69360352 52.11352539 C-28.78466339 51.71015205 -28.78466339 51.71015205 -27.85736084 51.29862976 C-23.66847363 49.23989749 -21.7732287 47.33484861 -20.04672241 42.80995178 C-19.81417755 42.12767014 -19.58163269 41.44538849 -19.34204102 40.74243164 C-18.94186264 39.66517067 -18.94186264 39.66517067 -18.53359985 38.56614685 C-17.68897382 36.27707061 -16.87829872 33.97765898 -16.06860352 31.67602539 C-15.51876899 30.16543933 -14.96670289 28.65566358 -14.41235352 27.14672852 C-13.33404412 24.20322341 -12.26649617 21.25619585 -11.20825195 18.30541992 C-4.67455886 0.14367571 -4.67455886 0.14367571 0 0 Z " fill="#0166F9" transform="translate(2860.693603515625,1301.886474609375)"/>
<path d="M0 0 C20.13 0 40.26 0 61 0 C61 102.96 61 205.92 61 312 C40.54 312 20.08 312 -1 312 C-1.0220257 272.39745929 -1.04049743 232.79492434 -1.05106533 193.19237927 C-1.05231611 188.52205166 -1.05361042 183.85172407 -1.05493164 179.18139648 C-1.05519395 178.2515776 -1.05545626 177.32175872 -1.05572652 176.3637635 C-1.06008355 161.28773062 -1.06797127 146.21170153 -1.0771528 131.13567091 C-1.08648843 115.67822669 -1.09205542 100.22078447 -1.09408849 84.76333755 C-1.09546391 75.21729848 -1.0998155 65.67127013 -1.10791647 56.12523436 C-1.11318281 49.58838714 -1.11480455 43.0515455 -1.11350138 36.51469631 C-1.11285782 32.73744304 -1.11387747 28.96020857 -1.11920547 25.1829586 C-1.1249263 21.0976323 -1.12300121 17.01234657 -1.12025452 12.92701721 C-1.12316736 11.71984513 -1.1260802 10.51267305 -1.12908131 9.26892 C-1.12709026 8.18359293 -1.12509921 7.09826586 -1.12304783 5.98005009 C-1.12342755 5.03568563 -1.12380727 4.09132116 -1.1241985 3.1183396 C-1 1 -1 1 0 0 Z " fill="#0267F9" transform="translate(331,1262)"/>
<path d="M0 0 C20.13 0 40.26 0 61 0 C61 73.92 61 147.84 61 224 C40.87 224 20.74 224 0 224 C0 150.08 0 76.16 0 0 Z " fill="#0066F9" transform="translate(2434,1350)"/>
<path d="M0 0 C1.01191406 -0.01998047 2.02382812 -0.03996094 3.06640625 -0.06054688 C13.66402843 -0.05376223 23.24709185 2.94598821 31.0859375 10.26953125 C39.85257744 19.31318398 42.79752289 30.32832855 45.125 42.4375 C45.38301392 43.77337158 45.38301392 43.77337158 45.64624023 45.13623047 C46.18573352 48.85628565 46.3226682 52.5148587 46.36328125 56.265625 C46.37790405 57.37928436 46.37790405 57.37928436 46.39282227 58.51544189 C46.71137033 89.02199331 46.71137033 89.02199331 42.125 102.4375 C41.73957031 103.57445312 41.35414063 104.71140625 40.95703125 105.8828125 C37.05643915 116.15815868 31.17887483 124.68878735 20.9765625 129.4375 C9.12143727 134.02089414 -6.14018992 134.70127483 -18.1875 130.4375 C-30.36845108 124.68009734 -36.17007728 115.66793626 -40.875 103.4375 C-43.80590636 93.97543898 -45.00453564 84.2956156 -45.11328125 74.4140625 C-45.12804001 73.30478394 -45.12804001 73.30478394 -45.14309692 72.1730957 C-45.61971179 27.14096377 -45.61971179 27.14096377 -31.38671875 11.74609375 C-29.33750592 9.86260264 -27.31640318 8.02628967 -25.125 6.3125 C-24.53203125 5.83554688 -23.9390625 5.35859375 -23.328125 4.8671875 C-15.86116576 0.51542463 -8.50221451 -0.0591178 0 0 Z " fill="#FEFEFE" transform="translate(2274.875,1395.5625)"/>
<path d="M0 0 C6.39037188 5.75236374 10.45325062 13.89063046 12.42578125 22.18359375 C12.73128906 23.41529297 12.73128906 23.41529297 13.04296875 24.671875 C16.84168014 43.0670048 16.2148355 66.62281922 6.125 83.015625 C1.16414525 89.3449914 -5.65584765 92.98132526 -13.38671875 94.87109375 C-23.87298678 95.89915924 -33.64737223 95.38947481 -42.44921875 88.99609375 C-51.85323328 80.93311516 -55.31693499 69.25351787 -56.57421875 57.18359375 C-58.47358617 17.61123323 -58.47358617 17.61123323 -46.57421875 3.18359375 C-34.58651469 -8.70273437 -13.67147665 -9.64679308 0 0 Z " fill="#FDFDFE" transform="translate(1557.57421875,1630.81640625)"/>
<path d="M0 0 C54.89865591 0 54.89865591 0 66.171875 10.00390625 C74.79543255 19.41979921 77.67946537 31.3839687 77.28125 43.9609375 C76.20372666 55.60417576 72.9174647 65.61309716 64.3125 73.8125 C46.48973826 88.15847299 21.16813746 86 0 86 C0 57.62 0 29.24 0 0 Z " fill="#FEFEFE" transform="translate(1991,1333)"/>
<path d="M0 0 C1.56717773 -0.00580078 1.56717773 -0.00580078 3.16601562 -0.01171875 C4.16697266 -0.01042969 5.16792969 -0.00914063 6.19921875 -0.0078125 C7.10889404 -0.00668457 8.01856934 -0.00555664 8.95581055 -0.00439453 C11.3125 0.125 11.3125 0.125 14.3125 1.125 C14.3125 7.725 14.3125 14.325 14.3125 21.125 C12.76820312 21.07859375 11.22390625 21.0321875 9.6328125 20.984375 C7.56772784 20.94682801 5.50262205 20.91043102 3.4375 20.875 C2.42429687 20.84148437 1.41109375 20.80796875 0.3671875 20.7734375 C-8.0589274 20.66541039 -15.20689791 22.01467473 -21.625 27.75 C-24.24637319 32.03951977 -25.50186945 36.27032355 -26.6875 41.125 C-26.87828125 41.88554688 -27.0690625 42.64609375 -27.265625 43.4296875 C-27.40484375 43.98914062 -27.5440625 44.54859375 -27.6875 45.125 C-27.0275 45.125 -26.3675 45.125 -25.6875 45.125 C-25.48125 44.568125 -25.275 44.01125 -25.0625 43.4375 C-22.61009418 39.31299931 -19.18494006 36.8396873 -14.9375 34.8125 C-7.24165412 33.1845326 0.22272026 33.53539981 7.3125 37.125 C14.34613466 41.73496659 17.87432742 47.37230969 19.89453125 55.453125 C21.64844333 66.66504892 21.19776943 79.0841841 14.4375 88.5625 C8.33638907 95.86895236 0.68528725 99.59780463 -8.6875 101.125 C-19.78792114 102.02560021 -29.76404364 99.94697455 -38.6875 93.125 C-46.15088858 86.27152274 -50.19321853 77.05415413 -50.91015625 67.00366211 C-51.52903672 48.01176771 -51.77781517 29.90506587 -39.6875 14.125 C-28.61415627 2.61025782 -15.31572675 -0.05732649 0 0 Z " fill="#FDFEFE" transform="translate(1470.6875,1624.875)"/>
<path d="M0 0 C0.9384375 -0.020625 1.876875 -0.04125 2.84375 -0.0625 C11.82500296 -0.11212018 20.13347758 1.45748175 27.25 7.25 C31.79399718 11.8319693 34.27758152 16.03353346 34.625 22.5 C34.46115731 29.52182939 31.26983474 36.36583647 26.25 41.25 C22.07835098 43.89487174 17.66708714 46.05149526 13.25 48.25 C13.97445313 48.42015625 14.69890625 48.5903125 15.4453125 48.765625 C24.2587915 50.9748704 29.80126179 53.93312297 35.25 61.25 C37.64625255 68.43875764 37.41956879 77.8204892 34.3125 84.75 C29.16725021 93.37796761 21.75633429 96.98704473 12.30078125 99.5390625 C8.59537946 100.40254922 5.04666695 101.09289654 1.25 101.25 C0.15171875 101.3015625 -0.9465625 101.353125 -2.078125 101.40625 C-13.28781378 101.68303244 -23.1435889 99.78547037 -33.75 96.25 C-33.75 88.99 -33.75 81.73 -33.75 74.25 C-30.78 75.24 -27.81 76.23 -24.75 77.25 C-19.06505356 78.90029028 -14.03238983 79.589062 -8.125 79.5625 C-7.03832031 79.58666992 -7.03832031 79.58666992 -5.9296875 79.61132812 C-1.14271447 79.61566415 2.08099991 78.83262259 6.25 76.25 C8.45355547 73.56741074 8.24798738 72.21176013 8.0625 68.6875 C7.18050339 64.69980257 7.18050339 64.69980257 4.25 62.25 C-0.59024977 60.3153602 -4.99013471 59.84862365 -10.125 59.625 C-13.899375 59.439375 -13.899375 59.439375 -17.75 59.25 C-17.75 52.65 -17.75 46.05 -17.75 39.25 C-15.44 39.146875 -13.13 39.04375 -10.75 38.9375 C-4.90861136 38.59551897 -0.00082149 37.92688938 5.25 35.25 C7.71943529 31.54584707 7.71913089 29.62855495 7.25 25.25 C5.00278783 22.93323126 3.57204526 22.2984377 0.3671875 21.81640625 C-7.26516101 21.80721065 -12.89409072 22.95439882 -19.75 26.25 C-20.74 26.58 -21.73 26.91 -22.75 27.25 C-24.4845558 24.6833925 -26.18267075 22.09460559 -27.875 19.5 C-28.36871094 18.77039062 -28.86242188 18.04078125 -29.37109375 17.2890625 C-29.82871094 16.58007812 -30.28632812 15.87109375 -30.7578125 15.140625 C-31.40194092 14.16657715 -31.40194092 14.16657715 -32.05908203 13.17285156 C-32.75 11.25 -32.75 11.25 -32.06494141 9.11108398 C-30.04299484 6.2493501 -27.15209937 5.31617589 -24 4.0625 C-22.78828125 3.55332031 -21.5765625 3.04414062 -20.328125 2.51953125 C-13.56896857 0.12135894 -7.0986073 0.03837085 0 0 Z " fill="#FDFDFE" transform="translate(1371.75,1624.75)"/>
<path d="M0 0 C0.98548828 -0.01160156 1.97097656 -0.02320313 2.98632812 -0.03515625 C12.98638185 0.0046054 20.32812589 2.05826681 27.609375 9.09765625 C33.77813008 16.29042468 34.26784154 24.46463298 33.875 33.59765625 C33.22991836 41.39508059 31.1276122 46.84084488 25.71875 52.58203125 C20.03313535 57.30974343 12.91661179 59.98794148 5.5625 60.375 C4.66917969 60.42527344 3.77585937 60.47554687 2.85546875 60.52734375 C-8.0807387 60.87831318 -18.0983302 58.86015844 -26.4375 51.375 C-33.924433 42.07902339 -33.49887112 30.80734722 -32.4375 19.375 C-30.76824874 12.72919592 -27.30539236 8.56635169 -21.79296875 4.62890625 C-14.35723144 0.67057843 -8.32898253 -0.09766885 0 0 Z " fill="#0267F9" transform="translate(2464.4375,1262.625)"/>
<path d="M0 0 C1.11568359 0.63421875 1.11568359 0.63421875 2.25390625 1.28125 C11.25937454 7.15958224 16.25164942 17.68871576 18.6875 27.875 C19.12295215 32.22952146 19 36.6237601 19 41 C-8.72 41 -36.44 41 -65 41 C-65 26.85650619 -61.15154363 14.52133195 -51.3828125 4.046875 C-37.85315707 -7.57532081 -15.18845822 -9.02189619 0 0 Z " fill="#FEFEFE" transform="translate(571,1395)"/>
<path d="M0 0 C8.30020096 6.57319524 12.87915328 16.04833403 14.7734375 26.35546875 C15.1048236 30.22354447 15 34.11775497 15 38 C-12.72 38 -40.44 38 -69 38 C-69 24.9642508 -65.89453211 12.1124819 -56.875 2.125 C-41.78266835 -11.61980204 -16.0623553 -12.2395818 0 0 Z " fill="#FEFEFE" transform="translate(817,1398)"/>
<path d="M0 0 C3.0625 0.4375 3.0625 0.4375 5.3125 2.0625 C9.1945149 7.33094879 9.370673 12.76810315 9.36328125 19.0546875 C9.36756638 19.87067413 9.3718515 20.68666077 9.37626648 21.52737427 C9.38198727 23.2469185 9.38252671 24.96648692 9.37817383 26.68603516 C9.37501797 29.29762678 9.39848617 31.90807971 9.42382812 34.51953125 C9.42610198 36.19791525 9.42680421 37.87630227 9.42578125 39.5546875 C9.434991 40.3257785 9.44420074 41.09686951 9.45368958 41.8913269 C9.40394273 47.80794459 8.49513563 53.39793133 4.67720032 58.16842651 C3.0625 59.4375 3.0625 59.4375 -0.4375 59.375 C-3.9375 58.4375 -3.9375 58.4375 -5.75 56.875 C-8.60225005 51.02038149 -9.24697829 44.96851408 -9.23828125 38.53515625 C-9.24256638 37.81315536 -9.2468515 37.09115448 -9.25126648 36.34727478 C-9.25696577 34.83219442 -9.25754286 33.31708673 -9.25317383 31.80200195 C-9.25001212 29.50879414 -9.27353263 27.2168773 -9.29882812 24.92382812 C-9.3760152 7.54965454 -9.3760152 7.54965454 -4.5168457 1.73852539 C-2.9375 0.4375 -2.9375 0.4375 0 0 Z " fill="#0368F9" transform="translate(1535.9375,1645.5625)"/>
<path d="M0 0 C2.75992121 2.09373333 3.61401529 4.13909129 4.8125 7.375 C5.37965547 13.33013245 4.69057935 17.13278404 1.8125 22.375 C-0.51761838 24.8658162 -1.74280742 25.30876919 -5.125 25.8125 C-8.94175998 25.26724857 -10.48204915 24.08045085 -13.1875 21.375 C-16.24575239 16.5139883 -15.95104921 10.90884179 -15.1875 5.375 C-11.04129633 -0.18964176 -6.79914377 -1.94261251 0 0 Z " fill="#0669F9" transform="translate(1461.1875,1679.625)"/>
</svg>
