<?xml version="1.0" standalone="no"?>
<!DOCTYPE svg PUBLIC "-//W3C//DTD SVG 20010904//EN"
 "http://www.w3.org/TR/2001/REC-SVG-20010904/DTD/svg10.dtd">
<svg version="1.0" xmlns="http://www.w3.org/2000/svg"
 width="500.000000pt" height="500.000000pt" viewBox="0 0 500.000000 500.000000"
 preserveAspectRatio="xMidYMid meet">

<g transform="translate(0.000000,500.000000) scale(0.100000,-0.100000)"
fill="#000000" stroke="none">
<path d="M2225 3242 c-136 -47 -205 -121 -205 -221 0 -104 59 -180 189 -245
121 -62 214 -81 386 -81 161 0 232 13 330 60 45 21 46 23 15 17 -19 -4 -98 -7
-175 -7 -118 0 -152 4 -215 23 -141 44 -256 124 -304 212 -39 71 -34 149 12
215 17 25 28 45 24 45 -4 -1 -30 -8 -57 -18z"/>
<path d="M2425 3229 c-64 -37 -86 -89 -65 -153 38 -117 236 -224 446 -243 l72
-6 -10 54 c-23 127 -133 276 -243 329 -57 27 -168 38 -200 19z"/>
<path d="M1821 3091 c-40 -38 -61 -88 -61 -149 0 -112 70 -214 213 -311 161
-109 407 -160 634 -132 252 31 473 160 473 276 0 29 -40 75 -66 75 -16 0 -16
-1 -1 -18 27 -29 20 -52 -26 -97 -91 -87 -267 -130 -492 -122 -158 6 -245 26
-360 83 -194 97 -297 238 -283 384 2 22 3 40 2 40 -1 0 -16 -13 -33 -29z"/>
<path d="M540 2690 l0 -250 50 0 51 0 -1 250 -1 250 -50 0 -49 0 0 -250z"/>
<path d="M3981 2926 c-7 -8 -11 -27 -9 -43 2 -24 8 -28 36 -31 37 -4 62 12 62
39 0 41 -63 66 -89 35z"/>
<path d="M180 2675 l0 -235 50 0 50 0 0 95 0 95 80 0 80 0 0 35 0 35 -80 0
-80 0 0 65 0 65 85 0 85 0 0 40 0 40 -135 0 -135 0 0 -235z"/>
<path d="M3150 2675 l0 -235 45 0 45 0 0 85 0 85 58 0 c70 0 118 22 150 70 20
29 23 44 20 94 -4 51 -9 63 -36 87 -41 37 -89 49 -194 49 l-88 0 0 -235z m198
139 c16 -11 22 -25 22 -53 0 -48 -22 -69 -83 -77 l-47 -7 0 77 0 76 43 0 c23
0 53 -7 65 -16z"/>
<path d="M1564 2831 c-8 -21 -26 -43 -40 -49 -30 -14 -33 -52 -4 -52 18 0 20
-7 20 -87 1 -171 23 -208 124 -208 36 0 67 3 70 6 4 4 8 21 11 39 4 32 4 32
-32 27 -66 -11 -73 0 -73 118 l0 105 50 0 50 0 0 34 c0 32 -2 34 -32 31 -55
-4 -68 4 -68 41 0 31 -3 34 -30 34 -26 0 -32 -6 -46 -39z"/>
<path d="M4644 2831 c-8 -21 -26 -43 -40 -49 -30 -14 -33 -52 -4 -52 19 0 20
-7 20 -92 0 -156 29 -208 114 -208 72 0 86 8 86 47 0 34 -1 35 -31 29 -61 -12
-69 2 -69 119 l0 105 50 0 50 0 0 35 c0 32 -2 35 -27 34 -68 -4 -73 -1 -73 36
0 32 -2 35 -30 35 -26 0 -32 -6 -46 -39z"/>
<path d="M810 2782 c-98 -49 -118 -215 -37 -300 47 -49 133 -65 220 -41 34 9
37 13 37 46 0 29 -3 34 -17 28 -30 -11 -110 -18 -137 -11 -23 6 -56 50 -56 76
0 6 42 10 116 10 l116 0 -4 63 c-4 71 -25 108 -75 132 -42 20 -120 19 -163 -3z
m113 -51 c29 -11 54 -69 33 -77 -7 -3 -40 -4 -72 -2 -56 3 -59 4 -56 28 2 26
35 60 57 60 8 0 25 -4 38 -9z"/>
<path d="M1200 2781 c-20 -11 -44 -36 -58 -62 -32 -60 -29 -167 7 -218 45 -62
148 -88 242 -59 36 10 39 14 39 49 l0 38 -35 -15 c-53 -22 -119 -18 -149 9
-13 12 -27 32 -31 45 -6 22 -6 22 116 22 l122 0 -6 60 c-9 101 -62 150 -164
150 -28 0 -63 -8 -83 -19z m136 -66 c43 -43 29 -60 -49 -63 -65 -3 -67 -2 -67
21 0 62 71 87 116 42z"/>
<path d="M3622 2784 c-54 -28 -76 -69 -80 -149 -5 -87 12 -132 64 -171 33 -25
46 -29 105 -29 73 0 103 14 143 69 17 23 21 42 21 111 0 90 -11 116 -68 159
-37 28 -139 33 -185 10z m137 -73 c39 -39 36 -158 -5 -192 -23 -19 -73 -15
-95 7 -38 38 -37 146 2 185 24 24 73 25 98 0z"/>
<path d="M3970 2620 l0 -180 45 0 45 0 0 178 0 179 -45 1 -45 2 0 -180z"/>
<path d="M4178 2793 c-2 -5 -3 -19 -2 -33 0 -14 1 -91 2 -172 l2 -148 45 0 45
0 0 110 c0 145 17 180 85 180 44 0 55 -33 55 -167 l0 -123 51 0 51 0 -4 138
c-4 154 -16 190 -68 212 -44 18 -125 8 -155 -20 l-24 -23 -10 27 c-8 20 -17
26 -40 26 -16 0 -31 -3 -33 -7z"/>
<path d="M1980 2514 c0 -14 136 -271 186 -349 74 -118 166 -244 179 -245 19 0
139 131 237 260 78 104 198 290 186 290 -2 0 -27 -9 -56 -20 -86 -33 -234 -53
-342 -46 -124 8 -205 28 -307 76 -45 21 -83 36 -83 34z m284 -164 c18 -7 26
-17 26 -34 0 -14 -5 -28 -10 -31 -6 -4 -4 -12 5 -22 38 -38 -14 -91 -75 -78
-21 5 -30 13 -30 26 0 15 6 19 31 17 19 -2 34 2 36 10 3 7 -5 12 -21 12 -19 0
-26 5 -26 20 0 13 7 20 19 20 11 0 23 5 26 10 4 6 -7 10 -24 10 -17 0 -31 5
-31 10 0 6 0 13 -1 18 0 4 10 10 23 14 13 3 24 6 25 7 1 1 13 -3 27 -9z m154
-18 c3 -19 -1 -22 -27 -22 -17 0 -31 -4 -31 -9 0 -4 10 -6 23 -4 53 10 65 -78
15 -106 -25 -14 -29 -14 -55 5 -51 38 -39 130 20 154 33 13 52 7 55 -18z m134
1 c6 -8 12 -37 12 -65 0 -41 -5 -54 -23 -69 -29 -24 -43 -24 -70 -1 -26 21
-37 77 -22 115 17 44 73 55 103 20z"/>
<path d="M2362 2246 c1 -10 8 -17 13 -17 15 1 12 24 -3 29 -9 3 -13 -2 -10
-12z"/>
<path d="M2497 2304 c-10 -10 -8 -56 2 -73 7 -10 11 -6 16 17 6 32 -5 68 -18
56z"/>
</g>
</svg>
